<?xml version="1.0" encoding="utf-8"?>
<!-- Generator: Adobe Illustrator 21.0.0, SVG Export Plug-In . SVG Version: 6.00 Build 0)  -->
<svg version="1.1" id="Layer_1" xmlns="http://www.w3.org/2000/svg" xmlns:xlink="http://www.w3.org/1999/xlink" x="0px" y="0px"
	 viewBox="0 0 30 20" style="enable-background:new 0 0 30 20;" xml:space="preserve">
<style type="text/css">
	.st0{fill:#72B1C8;}
</style>
<g>
	<g>
		<g>
			<path class="st0" d="M5.8,19C2.6,19,0,16.4,0,13.2C0,10,2.6,7.4,5.8,7.4c3.2,0,5.8,2.6,5.8,5.8C11.6,16.4,9,19,5.8,19z M5.8,8.1
				c-2.8,0-5.1,2.3-5.1,5.1c0,2.8,2.3,5.1,5.1,5.1c2.8,0,5.1-2.3,5.1-5.1C10.9,10.4,8.6,8.1,5.8,8.1z"/>
			<path class="st0" d="M24.2,19c-3.2,0-5.8-2.6-5.8-5.8c0-3.2,2.6-5.8,5.8-5.8c3.2,0,5.8,2.6,5.8,5.8C30,16.4,27.4,19,24.2,19z
				 M24.2,8.1c-2.8,0-5.1,2.3-5.1,5.1c0,2.8,2.3,5.1,5.1,5.1c2.8,0,5.1-2.3,5.1-5.1C29.3,10.4,27,8.1,24.2,8.1z"/>
			<path class="st0" d="M15.1,13.5H6c-0.1,0-0.2-0.1-0.3-0.2c-0.1-0.1-0.1-0.2,0-0.3l4.6-7.9C10.3,5,10.4,5,10.5,5
				c0.1,0,0.2,0.1,0.3,0.2l4.6,7.9c0.1,0.1,0.1,0.2,0,0.3C15.3,13.5,15.2,13.5,15.1,13.5z M6.6,12.8h7.9l-4-6.9L6.6,12.8z"/>
			<rect x="11.8" y="2.1" transform="matrix(0.867 -0.4982 0.4982 0.867 -2.384 7.1052)" class="st0" width="0.7" height="11.9"/>
			<path class="st0" d="M15.1,13.5c-0.1,0-0.2-0.1-0.3-0.2l-4.6-7.9c-0.1-0.1-0.1-0.2,0-0.3C10.3,5,10.4,5,10.5,5h9.1
				c0.1,0,0.2,0.1,0.3,0.2c0.1,0.1,0.1,0.2,0,0.3l-4.6,7.9C15.3,13.5,15.2,13.5,15.1,13.5z M11.1,5.6l4,6.9l4-6.9H11.1z"/>
			<path class="st0" d="M8.9,3.3c-0.5,0-1.9,0-1.9-1c0-1,1.4-1,1.9-1c0,0,3.2,0.1,3.2,1C12.1,2.7,11.5,3.3,8.9,3.3z M8.9,1.9
				c-0.4,0-1.2,0-1.2,0.3c0,0.3,0.8,0.3,1.2,0.3c1.2,0,2.1-0.2,2.4-0.3C10.9,2.1,9.8,1.9,8.9,1.9z"/>
		</g>
		<path class="st0" d="M23.9,13.4L18,3c-0.1-0.1-0.1-0.2,0-0.3c0.1-0.1,0.2-0.2,0.3-0.2h3.4c0.9,0,1.6,0.7,1.6,1.6
			c0,0.9-0.7,1.6-1.6,1.6V5.1c0.5,0,1-0.4,1-1c0-0.5-0.4-1-1-1h-2.8l5.6,9.8L23.9,13.4z"/>
	</g>
</g>
</svg>
