<?xml version="1.0" encoding="utf-8"?>
<!-- Generator: Adobe Illustrator 21.0.0, SVG Export Plug-In . SVG Version: 6.00 Build 0)  -->
<svg version="1.1" id="Layer_1" xmlns="http://www.w3.org/2000/svg" xmlns:xlink="http://www.w3.org/1999/xlink" x="0px" y="0px"
	 viewBox="0 0 15 15" style="enable-background:new 0 0 15 15;" xml:space="preserve">
<style type="text/css">
	.st0{fill:#72B1C8;}
</style>
<path class="st0" d="M14,1c-1.3-1.3-3.4-1.3-4.7,0L8.9,1.4l-7,7C1.6,8.7,1.6,9,1.7,9.3C1.6,9.3,1.6,9.4,1.5,9.6L0,14
	c-0.1,0.2,0,0.5,0.2,0.7c0.1,0.1,0.3,0.2,0.5,0.2c0.1,0,0.1,0,0.2,0l4.5-1.5c0.1,0,0.2-0.1,0.3-0.2c0.1,0.1,0.3,0.2,0.4,0.2
	c0.2,0,0.3-0.1,0.5-0.2l7-7L14,5.7C15.3,4.4,15.3,2.3,14,1z M2.7,13.6l-1.3-1.3l0.8-2.5l3,3L2.7,13.6z M6.1,12.7L6.1,12.7l-0.2,0.2
	L6.1,12.7l-0.4-0.4c0,0,0,0,0,0l0,0L2.3,8.9l7-7L11,3.5l-7,7L4.4,11l7-7l1.6,1.6L6.1,12.7z M13.6,5.2L9.8,1.4c1-1,2.7-1,3.7,0
	C14.6,2.5,14.6,4.2,13.6,5.2z"/>
</svg>
