<?xml version="1.0" encoding="utf-8"?>
<!-- Generator: Adobe Illustrator 21.0.0, SVG Export Plug-In . SVG Version: 6.00 Build 0)  -->
<svg version="1.1" id="Layer_1" xmlns="http://www.w3.org/2000/svg" xmlns:xlink="http://www.w3.org/1999/xlink" x="0px" y="0px"
	 viewBox="0 0 30 20" style="enable-background:new 0 0 30 20;" xml:space="preserve">
<style type="text/css">
	.st0{fill:#72B1C8;}
</style>
<g>
	<path class="st0" d="M15.2,19.7c-5.4,0-9.7-4.4-9.7-9.7c0-5.4,4.4-9.7,9.7-9.7s9.7,4.4,9.7,9.7C24.9,15.4,20.5,19.7,15.2,19.7z
		 M15.2,1c-4.9,0-9,4-9,9c0,4.9,4,9,9,9c4.9,0,9-4,9-9C24.2,5.1,20.1,1,15.2,1z"/>
	<path class="st0" d="M15.2,16.2C11.8,16.2,9,13.5,9,10s2.8-6.2,6.2-6.2c3.4,0,6.2,2.8,6.2,6.2S18.6,16.2,15.2,16.2z M15.2,4.5
		c-3,0-5.5,2.5-5.5,5.5c0,3,2.5,5.5,5.5,5.5c3,0,5.5-2.5,5.5-5.5C20.7,7,18.2,4.5,15.2,4.5z"/>
	<path class="st0" d="M2.6,5.3c-1.2,0-2.1-1-2.1-2.1V0.8h0.7v2.3c0,0.8,0.6,1.4,1.4,1.4C3.3,4.5,4,3.9,4,3.1V0.8h0.7v2.3
		C4.7,4.3,3.7,5.3,2.6,5.3z"/>
	<rect x="2.2" y="0.8" class="st0" width="0.7" height="10.3"/>
	<path class="st0" d="M2.6,20c-0.7,0-1.3-0.6-1.3-1.3V12c0-0.7,0.6-1.3,1.3-1.3c0.7,0,1.3,0.6,1.3,1.3v6.7C3.8,19.4,3.3,20,2.6,20z
		 M2.6,11.5C2.3,11.5,2,11.7,2,12v6.7c0,0.3,0.2,0.5,0.5,0.5c0.3,0,0.5-0.2,0.5-0.5V12C3.1,11.7,2.9,11.5,2.6,11.5z"/>
	<path class="st0" d="M28.6,11.3h-0.7V9.4c-0.6,0-1.1-0.3-1.4-0.7c-1.2-1.6-0.4-5.4,0.3-7.2C27.3-0.1,28.2,0,28.3,0
		c0.2,0,0.3,0.2,0.3,0.4V11.3z M27.8,0.9c-0.1,0.1-0.3,0.4-0.4,0.7C26.6,4,26.2,7.1,27,8.2c0.2,0.3,0.5,0.4,0.8,0.4V0.9z"/>
	<path class="st0" d="M28.2,20c-0.7,0-1.3-0.6-1.3-1.3V12c0-0.7,0.6-1.3,1.3-1.3c0.7,0,1.3,0.6,1.3,1.3v6.7
		C29.5,19.4,28.9,20,28.2,20z M28.2,11.5c-0.3,0-0.5,0.2-0.5,0.5v6.7c0,0.3,0.2,0.5,0.5,0.5c0.3,0,0.5-0.2,0.5-0.5V12
		C28.7,11.7,28.5,11.5,28.2,11.5z"/>
</g>
</svg>
