<?xml version="1.0" encoding="utf-8"?>
<!-- Generator: Adobe Illustrator 21.0.0, SVG Export Plug-In . SVG Version: 6.00 Build 0)  -->
<svg version="1.1" id="Layer_1" xmlns="http://www.w3.org/2000/svg" xmlns:xlink="http://www.w3.org/1999/xlink" x="0px" y="0px"
	 viewBox="0 0 30 20" style="enable-background:new 0 0 30 20;" xml:space="preserve">
<style type="text/css">
	.st0{fill:#72B1C8;}
</style>
<g>
	<path class="st0" d="M14.4,20c-4.6,0-8.3-4.2-8.3-9.4c0-0.8,0.1-1.7,0.3-2.5c0-0.1,0.2-0.2,0.3-0.2C6.9,7.9,7,8,7,8.1
		c0,1,3.1,2.2,7.4,2.2c4.4,0,7.4-1.1,7.4-2.2c0-0.1,0.1-0.2,0.2-0.3c0.1,0,0.3,0.1,0.3,0.2c0.2,0.8,0.3,1.7,0.3,2.5
		C22.7,15.8,19,20,14.4,20z M6.8,9C6.7,9.5,6.7,10,6.7,10.6c0,4.9,3.5,8.9,7.7,8.9c4.3,0,7.7-4,7.7-8.9c0-0.5,0-1.1-0.1-1.6
		c-0.4,0.4-1.1,0.8-2.1,1.1c-1.5,0.5-3.4,0.7-5.5,0.7c-2.1,0-4-0.3-5.5-0.7C7.9,9.8,7.2,9.4,6.8,9z"/>
	<path class="st0" d="M7.5,12.6c-0.1-0.3-0.1-0.5-0.1-0.8l0.5-0.1C7.9,12,8,12.3,8,12.5L7.5,12.6z"/>
	<path class="st0" d="M11.1,17.9c-1.6-1-2.8-2.6-3.4-4.6l0.5-0.2c0.6,1.9,1.7,3.4,3.2,4.3L11.1,17.9z"/>
	<path class="st0" d="M14.4,10.8c-2.1,0-4-0.3-5.5-0.7c-1.6-0.5-2.4-1.2-2.4-2c0,0,0,0,0-0.1c0-0.1,0.1-0.3,0.1-0.4c0,0,0,0,0-0.1
		c0.7-1.3,3.9-2.2,7.8-2.2c3.9,0,7.1,0.9,7.8,2.2c0,0,0,0,0,0.1c0,0.1,0.1,0.3,0.1,0.4c0,0,0,0,0,0.1c0,0.8-0.9,1.5-2.4,2
		C18.5,10.6,16.5,10.8,14.4,10.8z M7,8.2c0.1,1,3.1,2.1,7.4,2.1c4.3,0,7.4-1.1,7.4-2.1c0-0.1-0.1-0.2-0.1-0.3
		C21.2,6.9,18.5,6,14.4,6c-4.1,0-6.8,1-7.4,1.9C7,7.9,7,8,7,8.2z"/>
	<path class="st0" d="M14.4,9.7c-3.5,0-5.8-0.7-6.7-1.3c-0.1,0-0.1-0.1-0.1-0.2s0-0.2,0.1-0.2c0.9-0.6,3.1-1.3,6.7-1.3
		c3.5,0,5.8,0.7,6.7,1.3c0.1,0,0.1,0.1,0.1,0.2c0,0.1,0,0.2-0.1,0.2C20.2,9,17.9,9.7,14.4,9.7z M8.4,8.1c0.9,0.4,2.9,1,6,1
		c3.1,0,5.1-0.6,6-1c-0.9-0.4-2.9-1-6-1C11.3,7.1,9.3,7.7,8.4,8.1z"/>
	<path class="st0" d="M15.9,9.5l-0.5-0.2l2.7-7.5c0-0.1,0.1-0.2,0.2-0.2l3.5-0.6l0.1,0.5l-3.3,0.6L15.9,9.5z"/>
	<g>
		<path class="st0" d="M6.1,5.9c0,0-0.1,0-0.1,0c-0.1,0-0.1-0.1-0.1-0.2C5,3.6,6.1,1.2,8.1,0.3C8.7,0.1,9.2,0,9.8,0
			c1.6,0,3.1,0.9,3.8,2.4c0,0.1,0,0.1,0,0.2c0,0.1-0.1,0.1-0.1,0.1L6.2,5.9C6.1,5.9,6.1,5.9,6.1,5.9z M9.8,0.5c-0.5,0-1,0.1-1.4,0.3
			C6.6,1.6,5.7,3.5,6.2,5.3L13,2.4C12.3,1.3,11.1,0.5,9.8,0.5z"/>
		<polygon class="st0" points="11.7,9.4 8,0.7 8.5,0.5 12.2,9.2 		"/>
		<path class="st0" d="M7.3,5C6.8,2.7,7.7,0.9,8,0.4l0.4,0.3c-0.2,0.3-1.1,2-0.6,4.2L7.3,5z"/>
		<path class="st0" d="M11.6,3.3c-1.3-1.9-3-2.4-3.4-2.5l0.1-0.5C8.8,0.4,10.7,1,12.1,3L11.6,3.3z"/>
	</g>
</g>
</svg>
