<?xml version="1.0" encoding="utf-8"?>
<!-- Generator: Adobe Illustrator 21.0.0, SVG Export Plug-In . SVG Version: 6.00 Build 0)  -->
<svg version="1.1" id="Layer_1" xmlns="http://www.w3.org/2000/svg" xmlns:xlink="http://www.w3.org/1999/xlink" x="0px" y="0px"
	 viewBox="0 0 30 20" style="enable-background:new 0 0 30 20;" xml:space="preserve">
<style type="text/css">
	.st0{fill-rule:evenodd;clip-rule:evenodd;fill:#72B1C8;}
</style>
<path class="st0" d="M27.3,11.5c0.6-1.6,1.1-3.5,1.3-5.8c-2.9,0.3-5.2,0.9-7,1.8c0.1,0.3,0.1,0.6,0.1,0.9c1.8-1,3.8-1.5,5.9-1.8
	c-0.2,1.6-0.6,3.2-1.2,4.7C26.7,11.5,27,11.5,27.3,11.5L27.3,11.5z M7.5,10.2C7.4,10.1,7.2,10,7,10c-0.2,0-0.4,0.1-0.5,0.2l0,0
	c-0.1,0.1-0.2,0.3-0.2,0.5c0,0.2,0.1,0.4,0.2,0.5c0.1,0.1,0.3,0.2,0.5,0.2c0.2,0,0.4-0.1,0.5-0.2l0,0c0.1-0.1,0.2-0.3,0.2-0.5
	C7.7,10.5,7.6,10.4,7.5,10.2L7.5,10.2z M23.1,10.2c0.1,0.1,0.2,0.3,0.2,0.5c0,0.2-0.1,0.4-0.2,0.5l0,0c-0.1,0.1-0.3,0.2-0.5,0.2
	c-0.2,0-0.4-0.1-0.5-0.2c-0.1-0.1-0.2-0.3-0.2-0.5c0-0.2,0.1-0.4,0.2-0.5l0,0c0.1-0.1,0.3-0.2,0.5-0.2C22.8,10,23,10.1,23.1,10.2
	L23.1,10.2z M15.3,7.3c-0.1-0.1-0.3-0.2-0.5-0.2c-0.2,0-0.4,0.1-0.5,0.2l0,0C14.1,7.5,14,7.7,14,7.9c0,0.2,0.1,0.4,0.2,0.5
	c0.1,0.1,0.3,0.2,0.5,0.2c0.2,0,0.4-0.1,0.5-0.2l0,0c0.1-0.1,0.2-0.3,0.2-0.5C15.5,7.7,15.4,7.5,15.3,7.3L15.3,7.3z M14.7,19.6
	C9.2,20.7,4,20.1,0.9,12.2c3.2-0.7,5.6-0.5,7.6,0.2c-0.5-2-0.4-4.5,0.7-7.6c2.9,1.6,4.7,3.4,5.6,5.3c1-1.9,2.7-3.7,5.6-5.3
	c1,3.1,1.2,5.5,0.7,7.5c1.9-0.7,4.4-0.9,7.5-0.2C25.4,20.1,20.3,20.7,14.7,19.6L14.7,19.6z M20,12.9l-4.6,5.2c0,0-0.1,0.1-0.1,0.1
	c0-0.1,0-0.2-0.1-0.2l0-6.7c0.9-2.2,2.6-3.8,4.7-5.1C20.5,8.5,20.8,10.8,20,12.9L20,12.9z M14.7,19.6L14.7,19.6L14.7,19.6L14.7,19.6
	z M16.1,18.8c0,0.1-0.1,0.1-0.1,0.2c1.7,0.3,3.5,0.3,5.2-0.1c3.1-0.8,4.9-3.2,6.2-5.9c-2.3-0.4-4.6-0.3-6.6,0.7L16.1,18.8L16.1,18.8
	z M14.3,11.3l0,6.7c0,0.1,0,0.2-0.1,0.2c-0.1,0-0.1-0.1-0.2-0.1L9.5,13C8.7,10.8,9,8.5,9.6,6.2C11.7,7.5,13.4,9.1,14.3,11.3
	L14.3,11.3z M13.4,18.8l-4.6-5.2c-2.1-1-4.4-1.1-6.7-0.7c1.3,2.7,3.1,5.1,6.2,5.9c1.7,0.4,3.5,0.4,5.2,0.1
	C13.4,18.9,13.4,18.8,13.4,18.8L13.4,18.8z M18.2,5.8C17.6,4,16.4,2.1,14.7,0c-1.7,2-2.8,3.9-3.5,5.7c0.2,0.2,0.5,0.4,0.7,0.5
	c0.6-1.7,1.6-3.4,2.8-4.9c1.2,1.5,2.2,3.2,2.8,4.9C17.7,6.1,18,5.9,18.2,5.8L18.2,5.8z M7.9,7.6C7.9,7.9,7.8,8.2,7.8,8.5
	C6,7.5,4,7,1.8,6.7C2.1,8.4,2.4,10,3,11.4c-0.3,0-0.6,0.1-0.9,0.1C1.5,9.9,1.1,8,0.9,5.7C3.8,6,6.1,6.6,7.9,7.6z"/>
</svg>
