<?xml version="1.0" encoding="utf-8"?>
<!-- Generator: Adobe Illustrator 21.0.0, SVG Export Plug-In . SVG Version: 6.00 Build 0)  -->
<svg version="1.1" id="Layer_1" xmlns="http://www.w3.org/2000/svg" xmlns:xlink="http://www.w3.org/1999/xlink" x="0px" y="0px"
	 viewBox="0 0 11 12" style="enable-background:new 0 0 11 12;" xml:space="preserve">
<style type="text/css">
	.st0{fill:#6F6F6F;}
</style>
<g>
	<path class="st0" d="M8.3,11.7c-0.1,0-0.1,0-0.2,0c-0.8-0.1-1.6-0.4-2.2-0.6c-1.4-0.7-2.7-1.7-3.8-2.9c-0.9-1-1.4-2-1.8-3.1
		C0.3,4.6,0,4,0.1,3.2c0-0.5,0.2-0.9,0.6-1.2l0.8-0.8c0.6-0.5,1.4-0.5,1.9,0c0.2,0.1,0.3,0.3,0.4,0.4C3.9,1.7,4,1.8,4,1.9l0.6,0.6
		c0.3,0.3,0.4,0.6,0.4,1S5,4.1,4.7,4.4L4.4,4.7C4.3,4.8,4.2,4.9,4,5.1c0.1,0.3,0.3,0.5,0.5,0.8c0.6,0.7,1.2,1.3,1.9,1.7
		c0.1,0,0.1,0.1,0.2,0.1l0,0l0.6-0.6c0.6-0.6,1.4-0.6,1.9,0l1.3,1.3C10.9,8.7,11,9,11,9.4c0,0.3-0.1,0.7-0.4,1
		c-0.1,0.1-0.2,0.2-0.3,0.3l0,0c-0.1,0.1-0.2,0.2-0.3,0.4l0,0C9.5,11.5,8.9,11.7,8.3,11.7z M2.4,1.2C2.2,1.2,2,1.3,1.8,1.5L1,2.3
		c-0.3,0.3-0.4,0.6-0.5,1C0.5,3.9,0.7,4.5,0.8,4.9c0.4,1,0.9,1.9,1.8,2.9c1,1.2,2.2,2.2,3.6,2.8c0.5,0.2,1.2,0.5,2,0.6
		c0,0,0.1,0,0.1,0c0.5,0,0.9-0.2,1.2-0.5l0,0c0.1-0.1,0.3-0.3,0.4-0.4l0,0c0.1-0.1,0.2-0.2,0.3-0.3c0.2-0.2,0.3-0.4,0.3-0.7
		c0-0.2-0.1-0.5-0.3-0.7L9,7.4C8.6,7,8.1,7,7.7,7.4L6.8,8.3L6.5,8.1C6.4,8.1,6.3,8,6.3,8c-0.7-0.5-1.4-1.1-2-1.8
		C3.9,5.8,3.7,5.4,3.6,5.1L3.5,5l0.1-0.1C3.8,4.7,4,4.5,4.1,4.4l0.3-0.3c0.2-0.2,0.3-0.4,0.3-0.7c0-0.2-0.1-0.5-0.3-0.7L3.7,2.2
		C3.7,2.1,3.6,2,3.5,1.9C3.4,1.8,3.2,1.6,3.1,1.5C2.9,1.3,2.7,1.2,2.4,1.2z"/>
</g>
</svg>
