<?xml version="1.0" encoding="utf-8"?>
<!-- Generator: Adobe Illustrator 21.0.0, SVG Export Plug-In . SVG Version: 6.00 Build 0)  -->
<svg version="1.1" id="Layer_1" xmlns="http://www.w3.org/2000/svg" xmlns:xlink="http://www.w3.org/1999/xlink" x="0px" y="0px"
	 viewBox="0 0 9 11" style="enable-background:new 0 0 9 11;" xml:space="preserve">
<style type="text/css">
	.st0{fill:#6F6F6F;}
</style>
<g>
	<g>
		<path class="st0" d="M4.2,11c-0.2,0-0.3-0.1-0.4-0.2L1,6.8c-1.2-1.6-1-4.2,0.4-5.6C2.1,0.4,3.1,0,4.2,0C5.3,0,6.3,0.4,7,1.2l0,0
			c1.4,1.4,1.6,4,0.4,5.6l-2.8,4C4.5,10.9,4.4,11,4.2,11z M4.2,0.5c-0.9,0-1.8,0.4-2.5,1c-1.2,1.2-1.4,3.6-0.3,5l2.8,4
			c0,0.1,0.1,0.1,0.1,0l2.8-4c1.1-1.4,0.9-3.8-0.3-5C6,0.8,5.2,0.5,4.2,0.5z"/>
	</g>
	<g>
		<path class="st0" d="M4.2,5.4c-0.7,0-1.3-0.6-1.3-1.3c0-0.7,0.6-1.3,1.3-1.3s1.3,0.6,1.3,1.3C5.5,4.8,4.9,5.4,4.2,5.4z M4.2,3.2
			c-0.5,0-0.9,0.4-0.9,0.9C3.3,4.6,3.7,5,4.2,5s0.9-0.4,0.9-0.9C5.1,3.6,4.7,3.2,4.2,3.2z"/>
	</g>
</g>
</svg>
