<?xml version="1.0" encoding="utf-8"?>
<!-- Generator: Adobe Illustrator 21.0.0, SVG Export Plug-In . SVG Version: 6.00 Build 0)  -->
<svg version="1.1" id="Layer_1" xmlns="http://www.w3.org/2000/svg" xmlns:xlink="http://www.w3.org/1999/xlink" x="0px" y="0px"
	 viewBox="0 0 11 30" style="enable-background:new 0 0 11 30;" xml:space="preserve">
<style type="text/css">
	.st0{fill:#72B1C8;}
</style>
<path class="st0" d="M8,6.3V3.5c0.7-0.2,1.2-0.9,1.2-1.7c0-1-0.8-1.8-1.8-1.8H3.8C2.8,0,2,0.8,2,1.8c0,0.8,0.5,1.4,1.2,1.7v2.8
	c-1.8,0.7-3,2.4-3,4.4v17.5C0.2,29.2,1,30,2,30h7.2c1,0,1.8-0.8,1.8-1.8V10.7C11,8.7,9.8,7,8,6.3z M4.4,6V3.6h0.4v0c0,0,0.1,0,0.1,0
	c0.3,0,0.6-0.3,0.6-0.6c0-0.3-0.3-0.6-0.6-0.6c0,0-0.1,0-0.1,0v0h-1c-0.3,0-0.6-0.3-0.6-0.6s0.3-0.6,0.6-0.6h3.6
	C7.7,1.2,8,1.5,8,1.8S7.7,2.4,7.3,2.4v0c0,0,0,0,0,0C7,2.4,6.7,2.7,6.7,3c0,0.1,0,0.2,0.1,0.3V6H6.3H4.9H4.4z M9.2,28.8H2
	c-0.3,0-0.6-0.3-0.6-0.6V10.7c0-1.9,1.6-3.5,3.5-3.5h1.4c1.9,0,3.5,1.6,3.5,3.5v2.5H6.7c-0.7,0-1.2,0.5-1.2,1.2v7.2
	c0,0.7,0.5,1.2,1.2,1.2h3.1v5.4C9.8,28.5,9.5,28.8,9.2,28.8z M9.8,14.4v7.2H6.7v-7.2H9.8z"/>
</svg>
