<?xml version="1.0" encoding="utf-8"?>
<!-- Generator: Adobe Illustrator 21.0.0, SVG Export Plug-In . SVG Version: 6.00 Build 0)  -->
<svg version="1.1" id="Layer_1" xmlns="http://www.w3.org/2000/svg" xmlns:xlink="http://www.w3.org/1999/xlink" x="0px" y="0px"
	 viewBox="0 0 29 30" style="enable-background:new 0 0 29 30;" xml:space="preserve">
<style type="text/css">
	.st0{fill:#72B1C8;}
</style>
<g>
	<g>
		<g>
			<path class="st0" d="M7.2,3.6c0,1,0,2,0,3c0,1,1.5,1,1.5,0c0-1,0-2,0-3C8.7,2.7,7.2,2.7,7.2,3.6L7.2,3.6z"/>
		</g>
		<g>
			<path class="st0" d="M18.5,3.6c0,1,0,2,0,3c0,1,1.5,1,1.5,0c0-1,0-2,0-3C20,2.7,18.5,2.7,18.5,3.6L18.5,3.6z"/>
		</g>
		<g>
			<path class="st0" d="M12.9,0.8c0,1,0,2,0,3c0,1,1.5,1,1.5,0c0-1,0-2,0-3C14.4-0.1,12.9-0.2,12.9,0.8L12.9,0.8z"/>
		</g>
	</g>
	<g>
		<path class="st0" d="M3,30c7.1,0,14.1,0,21.2,0c1,0,1-1.5,0-1.5c-7.1,0-14.1,0-21.2,0C2,28.5,2,30,3,30L3,30z"/>
	</g>
	<path class="st0" d="M28.6,15.5c-0.4-0.7-1.2-1.2-2.2-1.4c0.1-0.4,0.1-0.7,0.1-1c0-0.4-0.1-0.8-0.4-1.1c-0.3-0.3-0.7-0.5-1.1-0.5H2
		c-0.4,0-0.8,0.2-1.1,0.5c-0.3,0.3-0.4,0.7-0.4,1.1c0.2,2.4,1.5,10.6,7.1,16.4c0.3,0.3,0.6,0.4,1,0.4h2.4H16h2.4
		c0.4,0,0.8-0.2,1-0.4c2.3-2.4,3.9-5.2,4.9-7.9c0.6-0.1,1.1-0.4,1.7-0.7C28.5,19.6,29.6,17.2,28.6,15.5z M18.5,28.6H16l-7.4,0
		C3.4,23.1,2.2,15.3,2,13l23.2,0C24.9,15.3,23.8,23.1,18.5,28.6z M25.4,19.8c-0.1,0.1-0.2,0.1-0.3,0.2c0.6-1.7,0.9-3.2,1.1-4.5
		c0.4,0.1,0.9,0.2,1.2,0.7C28,17.2,27.1,18.8,25.4,19.8z"/>
</g>
</svg>
