<?xml version="1.0" encoding="utf-8"?>
<!-- Generator: Adobe Illustrator 21.0.0, SVG Export Plug-In . SVG Version: 6.00 Build 0)  -->
<svg version="1.1" id="Layer_1" xmlns="http://www.w3.org/2000/svg" xmlns:xlink="http://www.w3.org/1999/xlink" x="0px" y="0px"
	 viewBox="0 0 29 30" style="enable-background:new 0 0 29 30;" xml:space="preserve">
<style type="text/css">
	.st0{fill:#72B1C8;}
</style>
<path class="st0" d="M28.4,22.3l-13-9.7c0,0,0,0,0,0c1-0.2,1.9-0.8,2.5-1.6c0.8-1.1,1.1-2.5,0.8-3.8c-0.4-1.5-1.6-2.7-3-3
	c-1.3-0.3-2.7-0.1-3.8,0.8c-1,0.8-1.6,2-1.7,3.3c0,0,0,0.1,0,0.1c0,0.4,0.3,0.6,0.6,0.6s0.6-0.3,0.6-0.6c0,0,0,0,0,0h0
	c0-1,0.4-1.8,1.2-2.4c0.8-0.6,1.7-0.8,2.7-0.5c1,0.3,1.9,1.1,2.1,2.1c0.2,1,0.1,1.9-0.5,2.7c-0.5,0.6-1.1,1-1.8,1.1
	c-0.1-0.7-1.3-0.7-1.3,0.1c0,0.3,0,0.7,0,1c-0.1,0-0.2,0.1-0.2,0.1l-13,9.7c-0.6,0.4-0.8,1.1-0.5,1.8c0.2,0.6,0.8,1.1,1.4,1.1h25.9
	c0.7,0,1.2-0.4,1.4-1.1C29.1,23.4,28.9,22.7,28.4,22.3z M27.7,23.7c0,0.1-0.1,0.2-0.3,0.2H1.5c-0.2,0-0.2-0.1-0.3-0.2
	c0-0.1-0.1-0.3,0.1-0.4l13-9.7c0,0,0.1-0.1,0.2-0.1c0.1,0,0.1,0,0.2,0.1l13,9.7C27.8,23.4,27.8,23.6,27.7,23.7z"/>
</svg>
