<?xml version="1.0" encoding="utf-8"?>
<!-- Generator: Adobe Illustrator 21.0.0, SVG Export Plug-In . SVG Version: 6.00 Build 0)  -->
<svg version="1.1" id="Layer_1" xmlns="http://www.w3.org/2000/svg" xmlns:xlink="http://www.w3.org/1999/xlink" x="0px" y="0px"
	 viewBox="0 0 29 30" style="enable-background:new 0 0 29 30;" xml:space="preserve">
<style type="text/css">
	.st0{fill:#72B1C8;}
</style>
<g>
	<path class="st0" d="M21.9,29.2c-0.1,0-0.3,0-0.4,0c-2.2-0.1-4.2-1-5.7-1.7c-3.8-1.9-7.2-4.5-10-7.8c-2.3-2.8-3.9-5.4-4.9-8.2
		c-0.4-1.2-1-3-0.8-4.9c0.1-1.3,0.6-2.4,1.5-3.3l2.1-2.1c1.5-1.5,3.6-1.4,5,0c0.4,0.4,0.8,0.8,1.2,1.2c0.2,0.2,0.3,0.3,0.5,0.5
		l1.8,1.8c0.8,0.8,1.2,1.6,1.2,2.6c0,0.9-0.4,1.8-1.2,2.6l-0.6,0.7c-0.3,0.3-0.7,0.7-1,1c0.3,0.7,0.8,1.4,1.4,2.2
		c1.6,1.9,3.2,3.4,5,4.6c0.2,0.1,0.4,0.2,0.6,0.3l0.1,0.1l1.7-1.7c1.5-1.5,3.6-1.5,5.1,0l3.4,3.5c0.7,0.7,1.1,1.6,1.1,2.6
		c0,0.9-0.4,1.8-1.1,2.6c-0.3,0.3-0.6,0.6-0.8,0.8L27,26.4c-0.3,0.3-0.6,0.6-0.9,0.9L26,27.4C24.9,28.6,23.5,29.2,21.9,29.2z
		 M6.2,1.2C5.6,1.2,5,1.5,4.5,2L2.4,4.1C1.7,4.8,1.3,5.7,1.2,6.7C1,8.4,1.5,10,1.9,11.1c1,2.7,2.5,5.2,4.7,7.8
		c2.7,3.2,5.9,5.8,9.6,7.5c1.4,0.7,3.3,1.4,5.3,1.6c1.4,0.1,2.6-0.3,3.5-1.3l0.1-0.1c0.3-0.4,0.7-0.7,1-1.1l0.1-0.1
		c0.3-0.3,0.5-0.5,0.8-0.8c0.5-0.5,0.8-1.2,0.8-1.8c0-0.6-0.3-1.2-0.8-1.7l-3.5-3.5c-1-1-2.4-1-3.4,0L17.9,20L17,19.5
		c-0.2-0.1-0.5-0.2-0.7-0.4c-1.9-1.2-3.6-2.8-5.3-4.8c-0.8-1-1.4-1.9-1.8-2.8l-0.2-0.4l0.3-0.3c0.5-0.4,0.9-0.9,1.3-1.3l0.7-0.7
		c0.5-0.5,0.8-1.1,0.8-1.8S11.9,6,11.4,5.4L9.6,3.6C9.4,3.4,9.3,3.3,9.1,3.1C8.7,2.7,8.3,2.3,7.9,2C7.4,1.5,6.8,1.2,6.2,1.2z"/>
</g>
</svg>
