<?xml version="1.0" encoding="utf-8"?>
<!-- Generator: Adobe Illustrator 21.0.0, SVG Export Plug-In . SVG Version: 6.00 Build 0)  -->
<svg version="1.1" id="Layer_1" xmlns="http://www.w3.org/2000/svg" xmlns:xlink="http://www.w3.org/1999/xlink" x="0px" y="0px"
	 viewBox="0 0 29 30" style="enable-background:new 0 0 29 30;" xml:space="preserve">
<style type="text/css">
	.st0{fill:#72B1C8;}
</style>
<path class="st0" d="M28.1,18.6h-0.6c0-0.4-0.1-0.8-0.3-1.3c-0.7-1.6-3-3.9-9.4-6.2l0.1-0.1c0.3-0.3,0.4-0.7,0.4-1.1s-0.2-0.8-0.5-1
	L17,8.2c-0.3-0.3-0.7-0.4-1.1-0.4c-0.4,0-0.8,0.2-1,0.5l-8.2,9.2c-0.2,0.3-0.4,0.6-0.4,1H0.9C0.4,18.6,0,19,0,19.5v2.1
	c0,0.5,0.4,0.9,0.9,0.9h27.2c0.5,0,0.9-0.4,0.9-0.9v-2.1C29,19,28.6,18.6,28.1,18.6z M7.7,18.5l8.2-9.2c0,0,0.1-0.1,0.1-0.1
	c0,0,0.1,0,0.1,0l0.7,0.6c0.1,0.1,0.1,0.2,0,0.3l-7.5,8.5H7.6C7.6,18.6,7.6,18.5,7.7,18.5z M27.7,21.2H1.3v-1.3h16.6v0
	c0.3-0.1,0.5-0.3,0.5-0.6c0-0.3-0.2-0.6-0.5-0.6v0h-6.7l2.2-2.5l3.5-3.9c8.1,2.8,9.2,5.4,9.4,6.4h-4.4v0c-0.4,0-0.7,0.3-0.7,0.7
	c0,0.4,0.3,0.7,0.7,0.7h0.7h5.3V21.2z"/>
</svg>
