<?xml version="1.0" encoding="utf-8"?>
<!-- Generator: Adobe Illustrator 21.0.0, SVG Export Plug-In . SVG Version: 6.00 Build 0)  -->
<svg version="1.1" id="Layer_1" xmlns="http://www.w3.org/2000/svg" xmlns:xlink="http://www.w3.org/1999/xlink" x="0px" y="0px"
	 viewBox="0 0 29 30" style="enable-background:new 0 0 29 30;" xml:space="preserve">
<style type="text/css">
	.st0{fill-rule:evenodd;clip-rule:evenodd;fill:#72B1C8;}
</style>
<path class="st0" d="M8.7,24.9c0.5,0,0.9-0.1,1.3-0.3c0.4-0.1,0.9-0.3,1.3-0.5c0.4-0.2,0.8-0.4,1.2-0.7c0.1-0.1,0.2-0.1,0.3-0.2
	c-0.3,0-0.6-0.1-0.9-0.2c-0.6-0.1-1.3-0.3-1.9-0.4c-0.7-0.2-1.3-0.4-1.9-0.7C7.6,21.6,7,21.3,6.5,21c-0.3,0.1-0.5,0.2-0.8,0.3
	c-0.3,0.1-0.7,0.3-1,0.5c-0.3,0.2-0.7,0.4-1.1,0.6c-0.2,0.2-0.5,0.3-0.7,0.5c0.4,0.3,0.9,0.6,1.3,0.9c0.5,0.3,1.1,0.6,1.6,0.8
	c0.5,0.2,1,0.3,1.5,0.4C7.8,24.9,8.3,24.9,8.7,24.9L8.7,24.9z M7.7,10.8c0.9,0.4,1.7,0.9,2.3,1.4c0.1-0.9,0.3-1.7,0.7-2.6
	C11.3,7.8,12.4,6,14,4l0.1-0.2l0.3-0.4l0.3,0.4L14.9,4c1.6,1.9,2.7,3.8,3.3,5.5c0.3,0.9,0.6,1.8,0.7,2.6c0.7-0.5,1.5-1,2.3-1.4
	c1.7-0.8,3.7-1.3,6.2-1.5v0l0.2,0l0.5,0l0,0.5l0,0.2h0c-0.2,2.5-0.7,4.6-1.5,6.2c-0.8,1.7-1.8,3-3,4l-0.1,0.1c0.1,0,0.1,0,0.2,0.1
	c0.4,0.2,0.8,0.4,1.2,0.6c0.4,0.2,0.8,0.5,1.2,0.7c0.4,0.3,0.8,0.5,1.1,0.8l0.1,0.1l0.4,0.3l-0.4,0.3l-0.1,0.1
	c-0.4,0.3-0.9,0.7-1.4,1v0c-0.5,0.3-0.9,0.6-1.4,0.8c-0.5,0.2-1,0.4-1.5,0.6c-0.5,0.2-1,0.3-1.6,0.3c-0.5,0-1.1,0-1.7,0
	c-0.6-0.1-1.2-0.2-1.8-0.4c-0.6-0.2-1.2-0.5-1.8-0.9c-0.6-0.3-1.1-0.7-1.7-1.2c-0.4,0.3-0.8,0.6-1.2,0.8v0c-0.5,0.3-0.9,0.6-1.4,0.8
	c-0.5,0.2-1,0.4-1.5,0.6c-0.5,0.2-1,0.3-1.6,0.3c-0.5,0-1.1,0-1.7,0c-0.6-0.1-1.2-0.2-1.8-0.4c-0.6-0.2-1.2-0.5-1.8-0.9
	c-0.6-0.4-1.3-0.8-1.9-1.4l-0.1-0.1l-0.4-0.3l0.4-0.3l0.1-0.1c0.4-0.3,0.8-0.7,1.3-0.9c0.4-0.3,0.8-0.5,1.2-0.7
	c0.4-0.2,0.8-0.4,1.2-0.5l0,0l-0.1,0c-1.2-1-2.2-2.3-3-4C1.5,14.5,1,12.4,0.8,9.9l0-0.2l0-0.5l0.5,0l0.2,0v0C4,9.5,6,10,7.7,10.8
	L7.7,10.8z M17.8,13.2c-0.1,2.1-0.2,3.1-1.2,5.1c-0.3,0.6-0.6,1.1-0.9,1.7l-1.3,1.8l-1.3-1.8c-0.3-0.5-0.7-1.1-0.9-1.7
	c-1-1.9-1.1-3-1.2-5.1c0-1,0.2-2.1,0.6-3.2c0.5-1.5,1.4-3,2.7-4.6c1.3,1.6,2.2,3.2,2.7,4.6C17.6,11.1,17.8,12.2,17.8,13.2L17.8,13.2
	z M16,23.2c0.3,0.2,0.6,0.4,0.9,0.5c0.5,0.3,1,0.5,1.5,0.7c0.5,0.2,1,0.3,1.5,0.4c0.5,0.1,1,0.1,1.4,0c0.5,0,0.9-0.1,1.3-0.3
	c0.4-0.1,0.9-0.3,1.3-0.5c0.4-0.2,0.8-0.4,1.2-0.7c0.3-0.2,0.5-0.3,0.8-0.5c-0.2-0.1-0.4-0.3-0.6-0.4c-0.3-0.2-0.7-0.4-1-0.6
	c-0.4-0.2-0.7-0.4-1.1-0.5c-0.3-0.1-0.6-0.2-0.9-0.3c-0.5,0.3-1.1,0.6-1.7,0.9c-0.6,0.3-1.3,0.5-1.9,0.7c-0.6,0.2-1.2,0.3-1.9,0.4
	C16.6,23.1,16.3,23.1,16,23.2L16,23.2z M13.2,22c-1.3-0.2-2.5-0.5-3.6-0.8c-1.3-0.4-2.5-1.1-3.5-1.9c-1.1-0.9-2-2-2.7-3.5
	c-0.7-1.4-1.1-3.1-1.4-5.2c2.1,0.2,3.8,0.7,5.2,1.4c1.1,0.5,2,1.1,2.7,1.8c0,0.3,0,0.6,0,0.8c0.1,1.6,0.7,3.1,1.4,4.5
	C11.9,20,12.5,21,13.2,22L13.2,22z M19,13.7c0,0.3,0,0.6,0,0.8c-0.1,1.6-0.7,3.1-1.4,4.5c-0.5,1-1.2,2-1.9,3
	c1.3-0.2,2.5-0.5,3.6-0.8c1.3-0.4,2.5-1.1,3.5-1.9c1.1-0.9,2-2,2.7-3.5c0.7-1.4,1.1-3.1,1.4-5.2c-2.1,0.2-3.8,0.7-5.2,1.4
	C20.6,12.4,19.7,13,19,13.7z"/>
</svg>
