<?xml version="1.0" encoding="utf-8"?>
<!-- Generator: Adobe Illustrator 18.1.1, SVG Export Plug-In . SVG Version: 6.00 Build 0)  -->
<svg version="1.1" id="Layer_1" xmlns="http://www.w3.org/2000/svg" xmlns:xlink="http://www.w3.org/1999/xlink" x="0px" y="0px"
	 viewBox="0 0 25 26.2" enable-background="new 0 0 25 26.2" xml:space="preserve">
<path fill="#FFFFFF" d="M12.2,2.2C6,2.2,1,7.2,1,13.4s5,11.2,11.2,11.2s11.2-5,11.2-11.2S18.5,2.2,12.2,2.2z M15,17.4H9.5v-1
	c0.9-0.8,1.5-1.5,2-1.9c0.5-0.5,0.8-0.9,1.1-1.4c0.3-0.4,0.4-0.8,0.4-1.2c0-0.4-0.1-0.7-0.3-0.9s-0.5-0.3-0.9-0.3
	c-0.3,0-0.5,0.1-0.7,0.2c-0.2,0.1-0.5,0.3-0.7,0.6l-0.9-0.9c0.4-0.4,0.8-0.7,1.2-0.9c0.4-0.2,0.9-0.3,1.4-0.3c0.8,0,1.4,0.2,1.9,0.7
	c0.5,0.5,0.7,1.1,0.7,1.8c0,0.6-0.2,1.3-0.7,1.9c-0.5,0.7-1.1,1.4-2,2.3c0.5-0.1,0.9-0.1,1.3-0.1H15V17.4z"/>
</svg>
